<?xml version="1.0" encoding="UTF-8"?> <svg xmlns="http://www.w3.org/2000/svg" viewBox="0 0 1272.82 402.77"><defs><style>.cls-1{fill:#fff;}</style></defs><title>digitrial-logo</title><g id="Layer_2" data-name="Layer 2"><g id="Layer_1-2" data-name="Layer 1"><path class="cls-1" d="M1080.93,93.63a108.36,108.36,0,1,0,47,206v10.7h61.16V208.19c.11-2.05.19-4.12.19-6.21A108.35,108.35,0,0,0,1080.93,93.63Zm0,155.55a47.2,47.2,0,1,1,47.2-47.2c0,1,0,2-.11,3h-.08v1.13A47.26,47.26,0,0,1,1080.93,249.18Z"></path><path class="cls-1" d="M428.77,93.63a108.36,108.36,0,1,0,46.89,206.06,47.18,47.18,0,0,1-91.53,10H321.51a108.35,108.35,0,0,0,215.61-15.29V202A108.35,108.35,0,0,0,428.77,93.63ZM476,202a47.19,47.19,0,1,1-47.19-47.19A47.25,47.25,0,0,1,476,202Z"></path><path class="cls-1" d="M760.2,202V310.34h61.16V202a47.84,47.84,0,0,1,47.78-47.79V93.07A109.07,109.07,0,0,0,760.2,202Z"></path><path class="cls-1" d="M216.55,0H155.39V104.34A108.37,108.37,0,1,0,216.71,202c0-2-.06-3.91-.16-5.84ZM108.35,249.18a47.2,47.2,0,1,1,47-50.93v5.05h.12A47.24,47.24,0,0,1,108.35,249.18Z"></path><rect class="cls-1" x="1211.66" width="61.16" height="310.34"></rect><polygon class="cls-1" points="701.34 0 640.18 0 640.18 310.34 701.34 310.34 701.34 154.23 747.76 154.23 747.76 93.07 701.34 93.07 701.34 0"></polygon><rect class="cls-1" x="238.66" y="93.49" width="61.16" height="216.85"></rect><rect class="cls-1" x="238.66" y="0.05" width="61.16" height="62.45" rx="30.58"></rect><rect class="cls-1" x="554.94" y="0.05" width="61.16" height="62.45" rx="30.58"></rect><rect class="cls-1" x="890.22" y="0.05" width="61.16" height="62.45" rx="30.58"></rect><rect class="cls-1" x="558.07" y="93.49" width="61.16" height="216.85"></rect><rect class="cls-1" x="890.22" y="93.63" width="61.16" height="216.71"></rect></g></g></svg> 